<?xml version="1.0" encoding="utf-8"?>
<!-- Generator: Adobe Illustrator 16.0.0, SVG Export Plug-In . SVG Version: 6.00 Build 0)  -->
<!DOCTYPE svg PUBLIC "-//W3C//DTD SVG 1.1//EN" "http://www.w3.org/Graphics/SVG/1.1/DTD/svg11.dtd">
<svg version="1.1" id="Layer_1" xmlns="http://www.w3.org/2000/svg" xmlns:xlink="http://www.w3.org/1999/xlink" x="0px" y="0px"
	 width="354.4px" height="148.545px" viewBox="0 0 354.4 148.545" enable-background="new 0 0 354.4 148.545" xml:space="preserve">
<g>
	<path fill="#5CB0E2" d="M48.614,70.665c1.774-3.073,2.869-6.508,3.518-10.033c0.407-1.743,0.401-3.531,0.638-5.274
		c0.159-1.762,0.044-3.753,0.083-5.618l-0.006-1.298c0.051-0.693,0.019-1.444,0.229-2.106c0.274-1.412,0.942-2.57,1.635-3.639
		c1.471-2.055,3.303-3.461,5.18-4.625c3.778-2.259,7.869-3.55,12.228-4.008c1.82-0.172,3.715-0.121,5.65,0.146
		c-0.573-2.952-1.471-5.688-2.762-8.15c-2.335-4.447-5.592-8.111-9.771-10.994c-4.18-2.875-9.181-5.02-14.983-6.432
		c-5.817-1.406-12.142-2.119-18.98-2.119H0V114.99h26.708V78.345h2.773c4.511,0,8.742-0.471,12.839-1.158
		c1.075-0.719,2.169-1.426,3.047-2.348C46.667,73.63,47.646,72.128,48.614,70.665z M30.812,46.959
		c-6.209-3.594-7.787-12.501-3.499-19.914c4.288-7.399,12.801-10.498,19.004-6.903c6.216,3.594,7.787,12.514,3.505,19.92
		S37.034,50.561,30.812,46.959z"/>
	<path fill="#5CB0E2" d="M63.087,43.823c-1.419,0.687-2.717,1.559-3.55,2.525c-0.369,0.478-0.751,0.961-0.865,1.419
		c-0.141,0.235-0.083,0.458-0.179,0.693l-0.133,1.546c-0.223,1.909-0.268,3.722-0.624,5.713c-0.426,1.985-0.644,4.021-1.272,5.923
		c-1.082,3.836-2.672,7.59-5.025,10.892c-0.979,1.228-2.018,2.404-3.162,3.48c0.19-0.052,0.4-0.063,0.586-0.115
		c5.968-1.628,11.159-3.988,15.555-7.087c4.396-3.092,7.846-6.922,10.338-11.477c2.349-4.282,3.544-9.111,3.69-14.442
		c-1.495-0.763-3.69-1.228-5.892-1.196C69.354,41.705,65.951,42.449,63.087,43.823z"/>
	<path fill="#5CB0E2" d="M158.8,45.528c-3.588-3.748-8.042-6.681-13.359-8.799c-5.319-2.119-11.401-3.175-18.241-3.175
		s-12.921,1.056-18.241,3.175c-5.317,2.118-9.771,5.051-13.354,8.799c-3.582,3.741-6.298,8.144-8.145,13.188
		c-1.851,5.052-2.768,10.504-2.768,16.37s0.917,11.317,2.768,16.37c1.846,5.045,4.562,9.447,8.145,13.188
		c3.582,3.748,8.036,6.682,13.354,8.799c5.319,2.119,11.401,3.176,18.241,3.176s12.921-1.057,18.241-3.176
		c5.317-2.117,9.771-5.051,13.359-8.799c3.582-3.74,6.292-8.144,8.145-13.188c1.845-5.053,2.768-10.504,2.768-16.37
		s-0.923-11.318-2.768-16.37C165.092,53.672,162.382,49.269,158.8,45.528z M142.837,83.313c-0.547,2.658-1.443,5.045-2.69,7.164
		c-1.247,2.117-2.926,3.804-5.045,5.051c-2.119,1.246-4.753,1.871-7.902,1.871s-5.783-0.625-7.896-1.871
		c-2.119-1.247-3.806-2.934-5.052-5.051c-1.247-2.119-2.145-4.506-2.685-7.164c-0.547-2.66-0.814-5.402-0.814-8.228
		s0.268-5.561,0.814-8.227c0.541-2.659,1.438-5.045,2.685-7.164c1.247-2.119,2.934-3.798,5.052-5.052
		c2.111-1.247,4.746-1.871,7.896-1.871s5.783,0.624,7.902,1.871c2.119,1.253,3.798,2.933,5.045,5.052
		c1.247,2.119,2.145,4.504,2.69,7.164c0.541,2.666,0.814,5.402,0.814,8.227C143.652,77.911,143.378,80.653,142.837,83.313z"/>
	<path fill="#5CB0E2" d="M214.985,97.074c-2.501,0-4.181-0.572-5.046-1.712c-0.871-1.139-1.305-2.741-1.305-4.803V0h-26.06v93.493
		c0,2.933,0.375,5.783,1.139,8.551c0.759,2.768,2.012,5.234,3.748,7.411c1.736,2.17,4.071,3.907,7.004,5.211
		c2.928,1.306,6.566,1.953,10.912,1.953c2.934,0,5.783-0.19,8.552-0.572c2.768-0.382,5.234-0.891,7.41-1.546l-0.813-17.916
		C218.35,96.909,216.505,97.074,214.985,97.074z"/>
	<path fill="#5CB0E2" d="M264.005,97.074c-2.5,0-4.18-0.572-5.045-1.712c-0.872-1.139-1.305-2.741-1.305-4.803V0h-26.06v93.493
		c0,2.933,0.376,5.783,1.14,8.551c0.757,2.768,2.01,5.234,3.747,7.411c1.735,2.17,4.07,3.907,7.005,5.211
		c2.926,1.306,6.564,1.953,10.91,1.953c2.934,0,5.784-0.19,8.551-0.572c2.768-0.382,5.236-0.891,7.412-1.546l-0.814-17.916
		C267.371,96.909,265.526,97.074,264.005,97.074z"/>
	<polygon fill="#5CB0E2" points="328.174,35.183 313.681,92.022 299.023,35.183 271.984,35.183 300.811,116.942 290.389,148.545 
		316.608,148.545 354.4,35.183 	"/>
	<path fill="#5CB0E2" d="M48.918,31.226c0-3.735-2.69-6.706-6.209-7.438c0.637,0.731,1.057,1.654,1.057,2.698
		c0,2.303-1.864,4.161-4.161,4.161c-2.304,0-4.167-1.858-4.167-4.161c0-0.191,0.083-0.35,0.107-0.528
		c-1.298,1.381-2.131,3.219-2.131,5.268c0,4.282,3.475,7.749,7.755,7.749C45.452,38.975,48.918,35.508,48.918,31.226z"/>
</g>
</svg>
